# xmcd
#
# Track frame offsets: 
#        150
#        26628
#        43677
#        60265
#        74528
#        92046
#        107702
#        122865
#        140088
#        157136
#        173236
#        201699
#        217993
#        235005
#        252126
#        267493
#        281818
#        297813
#        325476
#
# Disc length: 4576 seconds
#
# Revision: 5
# Processed by: cddbd v1.5.2PL0 Copyright (c) Steve Scherf et al.
# Submitted via: ExactAudioCopy v1.0b3
#
DISCID=3011de13
DTITLE=Various Artist - Dance Attack! Vol. 2 - CD 1
DYEAR=2002
DGENRE=Misc
TTITLE0=Ago - Put On Your Red Shoes (Gigi D'Agostino Rmx)
TTITLE1=Mark 'Oh - Let This Party Never End (Video Cut)
TTITLE2=Aquagen - Summer Is Calling (Radio Mix)
TTITLE3=DJs @ Work - Fly With Me (Short Distance Radio Mix)
TTITLE4=Noémi - Y.O.U. (Radio Edit)
TTITLE5=Trance Allstars - Go (Talla 2XLC Short Version)
TTITLE6=Beam Vs. Cyrus - All Over The World (Video Mix)
TTITLE7=Sash! - Ganbareh (Single Edit)
TTITLE8=Floorfilla - Le Delire (Radio Edit)
TTITLE9=Cosmic Gate - The Truth (Video Edit)
TTITLE10=Ramirez - Accelerando (Brooklyn Bounce Rmx)
TTITLE11=Pulsedriver - Time (Single Version)
TTITLE12=Alex C. Feat. Yasmin K. - Rhythm Of The Night (Single Edit)
TTITLE13=Sonic Divas - There's Only U (Postcard From Ibiza Radio)
TTITLE14=Candy - Holiday (Dave Aniston Radio Mix)
TTITLE15=Orion Too - You And Me (Original Radio Mix)
TTITLE16=CJ Stone - The Sun (Goes Down) (Radio Edit)
TTITLE17=DJ Cerla - Yo DJ (Xtd Mix)
TTITLE18=Neo Cortex - Elements (Vocal Radio Mix)
EXTD=
EXTT0=
EXTT1=
EXTT2=
EXTT3=
EXTT4=
EXTT5=
EXTT6=
EXTT7=
EXTT8=
EXTT9=
EXTT10=
EXTT11=
EXTT12=
EXTT13=
EXTT14=
EXTT15=
EXTT16=
EXTT17=
EXTT18=
PLAYORDER=
